<svg width="50" height="50" viewBox="0 0 50 50" fill="none" xmlns="http://www.w3.org/2000/svg">
<path d="M0 42.1053V34.7368C0 33.2456 0.383772 31.875 1.15132 30.625C1.91886 29.375 2.9386 28.4211 4.21053 27.7632C6.92982 26.4035 9.69298 25.3838 12.5 24.7039C15.307 24.0241 18.1579 23.6842 21.0526 23.6842C21.9298 23.6842 22.807 23.7171 23.6842 23.7829C24.5614 23.8487 25.4386 23.9474 26.3158 24.0789C26.1404 26.6228 26.6009 29.0241 27.6974 31.2829C28.7939 33.5417 30.3947 35.3947 32.5 36.8421V42.1053H0ZM42.1053 50L38.1579 46.0526V33.8158C36.2281 33.2456 34.6491 32.1601 33.4211 30.5592C32.193 28.9583 31.5789 27.1053 31.5789 25C31.5789 22.4561 32.4781 20.2851 34.2763 18.4868C36.0746 16.6886 38.2456 15.7895 40.7895 15.7895C43.3333 15.7895 45.5044 16.6886 47.3026 18.4868C49.1009 20.2851 50 22.4561 50 25C50 26.9737 49.4408 28.7281 48.3224 30.2632C47.2039 31.7982 45.7895 32.8947 44.0789 33.5526L47.3684 36.8421L43.4211 40.7895L47.3684 44.7368L42.1053 50ZM21.0526 21.0526C18.1579 21.0526 15.6798 20.0219 13.6184 17.9605C11.557 15.8991 10.5263 13.4211 10.5263 10.5263C10.5263 7.63158 11.557 5.15351 13.6184 3.09211C15.6798 1.0307 18.1579 0 21.0526 0C23.9474 0 26.4254 1.0307 28.4868 3.09211C30.5482 5.15351 31.5789 7.63158 31.5789 10.5263C31.5789 13.4211 30.5482 15.8991 28.4868 17.9605C26.4254 20.0219 23.9474 21.0526 21.0526 21.0526ZM40.7895 26.3158C41.5351 26.3158 42.1601 26.0636 42.6645 25.5592C43.1689 25.0548 43.4211 24.4298 43.4211 23.6842C43.4211 22.9386 43.1689 22.3136 42.6645 21.8092C42.1601 21.3048 41.5351 21.0526 40.7895 21.0526C40.0439 21.0526 39.4189 21.3048 38.9145 21.8092C38.4101 22.3136 38.1579 22.9386 38.1579 23.6842C38.1579 24.4298 38.4101 25.0548 38.9145 25.5592C39.4189 26.0636 40.0439 26.3158 40.7895 26.3158Z" fill="#E8EAED"/>
</svg>
